<?xml version="1.0" encoding="utf-8"?>
<!-- Generator: Adobe Illustrator 22.0.1, SVG Export Plug-In . SVG Version: 6.00 Build 0)  -->
<svg version="1.1" id="Layer_1" xmlns="http://www.w3.org/2000/svg" xmlns:xlink="http://www.w3.org/1999/xlink" x="0px" y="0px"
	 viewBox="0 0 500 500" style="enable-background:new 0 0 500 500;" xml:space="preserve">
<style type="text/css">
	.st0{fill:#89C540;}
	.st1{clip-path:url(#SVGID_2_);fill:url(#SVGID_3_);}
	.st2{fill:#006A56;}
</style>
<g>
	<g>
		<path class="st0" d="M406.4,285.3c0,0.2-0.2,0.4-0.5,0.4h-34.4c-0.2,0-0.4-0.2-0.4-0.4v-36.2c0-15.5,7.2-25.4,17.6-31.7
			c10.4,6.3,17.6,16.2,17.6,31.7V285.3z M448.4,192.6H329.2c-0.2,0-0.4,0.2-0.4,0.4v24.1c0,0.2,0.1,0.3,0.2,0.4
			c10.3,6.4,17.4,16.2,17.4,31.6v21c0,9.2-4.2,17.2-10.4,21c-0.1,0.1-0.2,0.2-0.2,0.4v4.8c0,0.2,0.2,0.4,0.5,0.4h105.1
			c0.2,0,0.4-0.2,0.4-0.4v-4.8c0-0.2-0.1-0.3-0.2-0.4c-6.1-3.8-10.3-11.8-10.3-21v-21c0-15.4,7.1-25.2,17.4-31.6
			c0.1-0.1,0.2-0.2,0.2-0.4v-24.1C448.8,192.8,448.6,192.6,448.4,192.6"/>
	</g>
	<g>
		<defs>
			<path id="SVGID_1_" d="M340.3,196.2c7.5,4.3,14.2,9.9,19.4,17c5.9-7,13.3-12.7,21.1-17H340.3z M361.8,216.2
				c3.6,5.6,6.3,11.9,7.9,19.1c2.9-8.7,8.6-15.7,17.2-20.9l1.8-1.1l1.8,1.1c8.6,5.2,14.4,12.2,17.2,20.9c1.6-7.1,4.3-13.5,7.9-19.1
				c-9-10.9-20.8-17.3-27-20C382.6,199,370.8,205.3,361.8,216.2 M396.7,196.2c7.7,4.3,15.1,10,21.1,17c5.2-7.1,11.9-12.7,19.4-17
				H396.7z M420,215.9c-0.7,1-1.4,2.1-2.1,3.2v0c-5.2,8.6-7.9,18.8-7.9,30.1l0,39.8c0,0.2-0.2,0.4-0.4,0.4H368
				c-0.2,0-0.4-0.2-0.4-0.4v-39.8c0-11.3-2.7-21.5-7.9-30.1c-0.6-1.1-1.3-2.1-2.1-3.2c-5.9-8.4-14.4-15.1-25.3-19.7v19.3
				c7.8,5.2,13,12,15.6,20.3c0,0,2,5.2,2,13l0,21.4c0,9.5-4,18.1-10.6,23v0h98.8c-6.6-4.9-10.6-13.5-10.6-23l0-21.4c0-7.8,2-13,2-13
				c2.6-8.3,7.9-15,15.7-20.3v-19.3C434.4,200.8,425.9,207.5,420,215.9"/>
		</defs>
		<clipPath id="SVGID_2_">
			<use xlink:href="#SVGID_1_"  style="overflow:visible;"/>
		</clipPath>
		
			<linearGradient id="SVGID_3_" gradientUnits="userSpaceOnUse" x1="-38.4045" y1="674.1057" x2="-35.9447" y2="674.1057" gradientTransform="matrix(0 -39.042 -39.042 0 26707.1953 -1207.236)">
			<stop  offset="0" style="stop-color:#89C540"/>
			<stop  offset="0.15" style="stop-color:#89C540"/>
			<stop  offset="0.2567" style="stop-color:#76B943"/>
			<stop  offset="0.4719" style="stop-color:#46994B"/>
			<stop  offset="0.75" style="stop-color:#006A56"/>
			<stop  offset="1" style="stop-color:#006A56"/>
		</linearGradient>
		<rect x="332.3" y="196.2" class="st1" width="112.9" height="97"/>
	</g>
	<polygon class="st2" points="76.7,296.7 55.4,260.1 55.4,296.7 51.2,296.7 51.2,251.7 55.4,251.7 76.9,288.7 76.9,251.7 
		81.1,251.7 81.1,296.7 	"/>
	<g>
		<path class="st2" d="M90,265.8c0-10.1,6.4-15.1,15.6-15.1c6.4,0,10.9,2.7,13.2,7l-3.2,1.6c-1.8-3.1-5.3-4.8-9.8-4.8
			c-6.8,0-11.6,3.7-11.6,11.3v16.5c0,7.7,4.8,11.3,11.6,11.3c4.4,0,7.9-1.7,9.8-4.8l3.2,1.6c-2.3,4.4-6.8,7.1-13.2,7.1
			c-9.2,0-15.6-5-15.6-15.1V265.8z"/>
		<path class="st2" d="M142.2,272.3c5.4,0,8.4-3,8.4-8.7c0-4.5-2.9-8.1-8.3-8.1h-12v16.8H142.2z M130.3,293h13.1
			c5.4,0,8.4-3,8.4-8.7c0-4.4-2.9-8.1-8.3-8.1h-13.1V293z M143.1,251.7c7.5,0,11.7,5.3,11.7,11.5c0,5.5-2.1,9.2-6,10.9
			c4.6,1.5,7.1,5.7,7.1,10.5c0,7.9-4.3,12.2-11.8,12.2h-18.1v-45H143.1z"/>
	</g>
	<polygon class="st2" points="306.7,296.7 306.7,251.7 311.1,249.9 311.1,296.7 	"/>
	<g>
		<path class="st2" d="M197.4,304.4c0,1.4-0.9,2.7-2.6,2.7c-1.6,0-2.7-1.1-2.7-2.7c0-1.7,1.2-2.6,2.7-2.6
			C196.4,301.8,197.4,302.9,197.4,304.4"/>
		<path class="st2" d="M188.9,304.4c0,1.4-0.9,2.7-2.6,2.7c-1.6,0-2.7-1.1-2.7-2.7c0-1.7,1.2-2.6,2.7-2.6
			C187.9,301.8,188.9,302.9,188.9,304.4"/>
		<path class="st2" d="M279.3,255.7l-1-2.3c-0.5-1.2,0.1-2.3,1.2-2.8c0,0,1.2-0.6,2.4,0.2l0.4-1.4c-1.1-0.8-2.5-0.9-3.8-0.4
			c-2.3,0.9-3.1,2.9-2.2,5.2l1,2.3l-1.3,0.6l-0.9,2.2l9.1-3.8v-1.9L279.3,255.7z"/>
		<path class="st2" d="M293.3,251.7v35.7c0,3.2-2.6,5.8-5.8,5.8h-3.2v-33.5l-4.4,1.8v31.7h-3.3l-1.4,3.5h12.5c5.5,0,10-4.5,10-10
			v-36.9L293.3,251.7z"/>
		<path class="st2" d="M252.8,293.2h-2.4c-4.8-0.4-8.5-2.5-8.5-8.1c0-1.9,0.4-3.8,1.1-5c1.5-2.6,4.2-3.9,7.4-3.9
			c0.7,0,1.4,0.1,2.1,0.2c0.1,0,0.2,0.1,0.3,0.1V293.2z M252.3,259.7c-6.6,0-11.3,2.8-13.6,7.3l3.3,1.6c1.9-3.2,5.5-5,10-5
			c7,0,12,3.8,12,11.8V289c0,2.3-1.9,4.2-4.2,4.2H257v-18.8c-1.3-0.7-2.7-1.2-4.2-1.4c-0.8-0.1-1.6-0.2-2.5-0.2
			c-1.9,0-3.6,0.3-5.2,0.9c-0.6,0.2-1.2,0.5-1.7,0.8c-0.1,0.1-0.3,0.1-0.4,0.2v0c-3,1.9-5,5.4-5,10.3c0,0.1,0,0.2,0,0.3
			c0,3.7,1.1,6.3,3,8.1H234c-3.2,0-5.8-2.6-5.8-5.8v-37.5l-4.4,1.8v35.7c0,3.2-1.5,5.8-4.7,5.8c-1.9,0-3.2-2.2-4.4-4.2l-12.9-25.7
			l-1.8-3.6c0,0-2.1,1.2-4.3,4.4c-1.6,2.2-2.9,5.3-3.3,7.2c-0.4,2.5-1.2,5.8,2.6,12.8l5.2,9h-17.7c-5.3-0.1-7.2-3.9-7.2-8.9
			c0-3.3,1-6.3,2.6-9l-2.5-1.7c-2.2,3.5-3.5,7.5-3.5,11.8c0,6.5,3.3,11.4,10.8,11.4h23.8l-7.3-12.5c0,0-1.8-3.7-2.4-5.8
			c-0.4-1.4-0.8-3.1-0.7-4.7c0.2-4.1,2.8-7,2.8-7l10.2,20.1c3.1,6,4.4,9.9,10,9.9c2.8,0,5.3-1.5,6.9-3.7c1.8,2.2,4.6,3.7,7.7,3.7
			h27.3c4,0,7.2-3.2,7.2-7.2v-14.1C268.3,264.9,261.7,259.7,252.3,259.7"/>
	</g>
</g>
</svg>
