<?xml version="1.0" encoding="utf-8"?>
<!-- Generator: Adobe Illustrator 21.0.0, SVG Export Plug-In . SVG Version: 6.00 Build 0)  -->
<svg version="1.1" id="Layer_1" xmlns="http://www.w3.org/2000/svg" xmlns:xlink="http://www.w3.org/1999/xlink" x="0px" y="0px"
	 width="798.8px" height="378.8px" viewBox="0 0 798.8 378.8" style="enable-background:new 0 0 798.8 378.8;" xml:space="preserve"
	>
<style type="text/css">
	.st0{clip-path:url(#SVGID_2_);fill:url(#SVGID_3_);}
	.st1{fill:#1C93D1;}
	.st2{fill:#E8372F;}
</style>
<g>
	<g>
		<defs>
			<path id="SVGID_1_" d="M81.4,33.8C-4.5,93.5-25.8,211.4,33.8,297.4c59.6,85.9,177.6,107.3,263.6,47.6
				c85.9-59.7,107.2-177.7,47.5-263.6C308.1,28.4,249.1,0,189.2,0C151.9,0,114.3,11,81.4,33.8"/>
		</defs>
		<clipPath id="SVGID_2_">
			<use xlink:href="#SVGID_1_"  style="overflow:visible;"/>
		</clipPath>
		
			<radialGradient id="SVGID_3_" cx="183.6336" cy="-99.9736" r="20.7" gradientTransform="matrix(21.0453 -14.6075 -14.6075 -21.0453 -5089.9526 615.062)" gradientUnits="userSpaceOnUse">
			<stop  offset="0" style="stop-color:#EEF5FB"/>
			<stop  offset="7.865910e-02" style="stop-color:#EEF5FB"/>
			<stop  offset="0.1445" style="stop-color:#E8F2FA"/>
			<stop  offset="0.2337" style="stop-color:#D7E9F6"/>
			<stop  offset="0.3362" style="stop-color:#BADBEF"/>
			<stop  offset="0.4488" style="stop-color:#92C7E6"/>
			<stop  offset="0.5695" style="stop-color:#60ADDA"/>
			<stop  offset="0.6953" style="stop-color:#228ECC"/>
			<stop  offset="0.7191" style="stop-color:#1688C9"/>
			<stop  offset="1" style="stop-color:#1688C9"/>
		</radialGradient>
		<polygon class="st0" points="114.1,606.3 594.2,273.1 264.7,-201.7 -215.4,131.5 		"/>
	</g>
</g>
<path class="st1" d="M343.7,299.2c-4.4-8.4-7-14.7-9.4-19.8c0,0-107.2-231-114.7-243.7c-8.8-15-17.8-13.2-31.6-13.2
	c-13.7,0-22,0.8-27.4,10.4c-5.5,9.6-120.1,247.9-120.1,247.9c-2,4.1-5,9.2-8.3,14.2c4.1,6.1,8.5,11.8,13.1,17.3l1.3-0.8l101-214.8
	c4.1-8.6,10.7-8.6,14.8,0l122.3,256.6c0,0,2.9-1.8,7.1-4.6C313.2,334.9,330,318.1,343.7,299.2"/>
<path class="st2" d="M297.8,157.8c0,0-120.8-1.4-200.4,48l-1.5,1l-20.1,42.7C88.3,238.1,171.6,166.7,297.8,157.8"/>
<path class="st1" d="M537.3,243.7h-68l0.7,15.8h51.5c7.7,0,11.9,3.9,11.9,9.3v10H488c-14,0-23.8,12.5-23.8,32.2
	c0,19.8,11.8,34.8,32.4,34.8h64.3v-74.7C560.8,259.4,552.4,243.7,537.3,243.7 M533.3,327h-40c-7.2,0-11.2-5.8-12.3-8.4
	c-1-2.5-1.7-7.1,0-12c1.8-5.2,7.3-8.4,18.4-8.4h33.9L533.3,327L533.3,327z M756.2,248.3h-34.4v-36.1h-27.9v132.3h27.9v-0.4H748
	c27.9,0,48.5-20,48.5-50.3C796.6,263.4,769.1,248.3,756.2,248.3 M724.9,332l-3-0.1v-70.3h24.9c9.4,0,26.6,12.5,26.6,33
	C773.4,315.1,755.4,332,724.9,332 M624.8,240.5c-18.9,0-40.8,14.6-40.8,33.5v70.5h13.3v-63.6c0-12.9,7.7-23.2,22.4-23.2
	c14.6,0,22.8,7.7,22.8,15.4v71.3h27.9v-73C670.3,250.3,646.5,240.5,624.8,240.5 M781.8,63.2v93.4h17V53.2L781.8,63.2z M631.2,155.6
	h119.7v1.1h17V53.2l-17,10v67.2h-61.7c-9.8-1.6-13.7-21.5-3.9-25.5c11.6-4.6,16.2,7,16.2,7l11.6-8.5c-3.8-12.4-27-27-41.7-10.8
	s-6.9,38.6-6.9,38.6h-34c-2.3-17-12.4-29.3-12.4-29.3l-17.8,17.8C633.5,156.8,581,190,581,190C625.8,189.9,631.2,155.6,631.2,155.6
	 M476.8,186.8c12.6,8.7,34.1,6.5,48.3-4.3c16.2-12.4,11.2-36.6,11.2-36.6l2,0.3c4.5,1.4,5.7,7.4,5.7,7.4h40.2
	c0-40.9-13.9-58.7-13.9-58.7l-14.7,15.4c9.3,3.1,13.1,21.6,13.1,21.6h-53.3l-7,15.4c10,1.5,16.2,17-14.7,17s-9.3-49.4-9.3-49.4
	C454.4,148.2,462.1,176.8,476.8,186.8 M511.5,218.8l9.6-10.4L510.6,198l-10,10.4L511.5,218.8z M480.2,208.6l10.8,10.3l9.6-10.4
	l-10.5-10.4L480.2,208.6z M552.4,176.8l10.8,10.3l9.6-10.4l-10.5-10.4L552.4,176.8z"/>
</svg>
