<?xml version="1.0" encoding="utf-8"?>
<!-- Generator: Adobe Illustrator 22.0.1, SVG Export Plug-In . SVG Version: 6.00 Build 0)  -->
<svg version="1.1" id="Layer_1" xmlns="http://www.w3.org/2000/svg" xmlns:xlink="http://www.w3.org/1999/xlink" x="0px" y="0px"
	 viewBox="0 0 1000 1000" style="enable-background:new 0 0 1000 1000;" xml:space="preserve">
<style type="text/css">
	.st0{fill:#009A93;}
	.st1{fill:#333A92;}
</style>
<path class="st0" d="M136.6,527.2c-4.9,0-8.9,0.2-12.5,0.9c-10,1.9-19.6,7.1-22.9,18.9c-0.8,2.9-1.1,6.3-1.1,10.2v33.3h3.6
	c7.1,0,12.8-2.8,15.7-7.1c1.5-2.4,2.3-5.8,2.3-9.4v-15.8c0-4.4,0.4-7.3,2.1-9.3c2.2-2.8,5.6-3.9,10.5-3.9h34.9v-17.8H136.6z"/>
<path class="st0" d="M810.6,546.2c-3.2-11.8-12.9-17.1-22.8-18.9c-3.6-0.6-7.6-0.9-12.5-0.9h-13.2c-4.9,0-8.9,0.3-12.5,0.9
	c-10,1.8-19.7,7.2-22.8,18.9c-0.8,3-1.1,6.3-1.1,10.2v34.1h3.6c7.1,0,12.7-2.8,15.7-7.1c1.6-2.4,2.3-5.8,2.3-9.4v-16.6
	c0-4.4,0.4-7.4,2.1-9.4c2.2-2.7,5.6-3.7,10.5-3.7h17.4c4.9,0,8.3,1,10.5,3.7c1.7,2,2.1,5,2.1,9.4V574c0,3.6,0.8,7,2.4,9.4
	c3,4.3,8.6,7.1,15.7,7.1h3.6v-34.1C811.7,552.5,811.4,549.2,810.6,546.2"/>
<path class="st0" d="M176.7,527.4v63.2h3.6c7,0,12.7-2.8,15.7-7.1c1.6-2.4,2.4-5.8,2.4-9.4v-46.7H176.7z"/>
<path class="st0" d="M286.7,527.4c-7.1,0-12.7,2.8-15.7,7.2c-1.5,2.3-2.4,5.8-2.4,9.4v28.7H241c-5,0-8.3-1-10.4-3.7
	c-1.7-2.1-2.1-5-2.1-9.4v-32.3h-21.7v33.9c0,6.6,0.4,15.2,6.9,21.6c6.4,6.5,15.5,7.8,29.5,7.8h25.4v27.1h21.7v-90.3H286.7z"/>
<path class="st0" d="M900.2,538.9v-12h-21.7v12c0,4.8-3,8.9-12.2,8.9h-24.7v-39.5c0-3.5-0.8-7-2.3-9.3c-3-4.4-8.7-7.2-15.7-7.2h-3.7
	v98.6h21.7v-29.3c3.5,2.4,8.7,4.1,13.8,4.1h11.5c8.6,0,11.7,4.3,11.7,9.2v16h21.7v-16.2c0-7-2.2-13.1-9-17.7
	C897,552,900.2,545.7,900.2,538.9"/>
<path class="st0" d="M369.4,527.2h-4.5h-31.8c-11.8,0-22.3,2.7-28.7,9.2c-4.8,4.7-8.3,11.7-8.3,21v2.6c0,10.1,3.5,16.4,8.2,21
	c6.4,6.5,16.6,9.2,28.4,9.2h32.2h4.5h17.2v-63.2H369.4z M331.2,572.6c-4.9,0-8.6-1.1-10.8-3.8c-1.7-2.2-2.2-4.9-2.2-9.3v-1.3
	c0-4.4,0.5-7.2,2.2-9.3c2.2-2.8,5.5-3.9,10.3-3.9h34.3v27.6H331.2z"/>
<path class="st0" d="M701.1,527.2h-5.6h-30.7c-11.8,0-22.2,2.7-28.7,9.2c-4.7,4.7-8.2,11.7-8.2,21v2.6c0,10.1,3.5,16.4,8.2,21
	c6.5,6.5,16.6,9.2,28.3,9.2h31.2h5.6h16.1v-63.2H701.1z M662.8,572.6c-4.9,0-8.6-1.1-10.8-3.8c-1.7-2.2-2.2-4.9-2.2-9.3v-1.3
	c0-4.4,0.5-7.2,2.2-9.3c2.2-2.8,5.5-3.9,10.4-3.9h33.1v27.6H662.8z"/>
<path class="st0" d="M481.9,500.2c-7.1,0-12.7,2.9-15.7,7.2c-1.5,2.2-2.3,5.7-2.3,9.4v10.4h-34.1c-11.8,0-22.3,2.8-28.7,9.2
	c-4.7,4.7-8.2,11.7-8.2,21v2.6c0,10.1,3.5,16.5,8.2,21.1c6.4,6.5,16.6,9.2,28.4,9.2h11.1h1.8h6.6c11.8,0,21.9-2.7,28.3-9.2
	c4.7-4.6,8.2-10.9,8.2-21.1v-8.1v-1v-50.9L481.9,500.2z M463.9,551v8.5c0,4.4-0.5,7.1-2.2,9.3c-2.2,2.6-5.9,3.8-10.8,3.8h-8.5h-1.8
	h-12.7c-4.9,0-8.6-1.1-10.8-3.8c-1.7-2.1-2.2-4.9-2.2-9.3v-1.3c0-4.4,0.5-7.2,2.2-9.3c2.2-2.8,5.5-3.9,10.3-3.9h36.4V551z"/>
<path class="st0" d="M614.5,536.5c-6.4-6.5-16.9-9.2-28.7-9.2h-33.2v-36.9h-3.6c-7,0-12.7,2.8-15.7,7.2c-1.5,2.3-2.3,5.7-2.3,9.3
	v45.2v8.1c0,10.1,3.6,16.4,8.2,21c6.5,6.5,16.5,9.2,28.3,9.2h5h1.9h11.9c11.9,0,21.9-2.7,28.3-9.2c4.7-4.6,8.2-10.9,8.2-21v-2.6
	C622.8,548.1,619.2,541.2,614.5,536.5 M600.8,559.5c0,4.4-0.5,7.1-2.2,9.3c-2.2,2.6-6,3.8-10.8,3.8h-13.5h-1.9h-6.8
	c-4.9,0-8.7-1.1-10.8-3.8c-1.7-2.2-2.2-4.9-2.2-9.3V551v-6h35.6c4.8,0,8.1,1.1,10.3,3.9c1.7,2.1,2.2,4.9,2.2,9.3V559.5z"/>
<path class="st1" d="M251.5,398.5c0,5.7,5.8,10.2,13.3,10.2c7.4,0,13.3-4.5,13.3-10.2c0-5.6-5.9-10.1-13.3-10.1
	C257.4,388.4,251.5,392.9,251.5,398.5"/>
<path class="st1" d="M804.5,398.5c0,5.7,5.8,10.2,13.3,10.2c7.4,0,13.3-4.5,13.3-10.2c0-5.6-6-10.1-13.3-10.1
	C810.5,388.4,804.5,392.9,804.5,398.5"/>
<path class="st1" d="M375.7,490.7c0,5.6,5.8,10,13.2,10c7.4,0,13.2-4.4,13.2-10c0-5.6-5.8-10.1-13.2-10.1
	C381.7,480.6,375.7,485.1,375.7,490.7"/>
<path class="st1" d="M401.3,490.7c0,5.6,5.8,10,13.2,10c7.5,0,13.3-4.4,13.3-10c0-5.6-5.8-10.1-13.3-10.1
	C407.1,480.6,401.3,485,401.3,490.7"/>
<path class="st1" d="M856.9,490.7c0,5.7,5.9,10.3,13.5,10.3c7.6,0,13.6-4.5,13.6-10.3c0-5.7-6-10.3-13.6-10.3
	C862.9,480.3,856.9,485,856.9,490.7"/>
<path class="st1" d="M688.8,404.7l-6.1,13.3c-0.6,1.3-0.8,2.6-0.8,3.8c0,1.6,0.4,3,1.3,4.1c1.8,2.5,4.9,3.8,7.9,4.4
	c-1.1,2.6-5.3,10.9-5.3,10.9h19l6.1-14.3c0.6-1.4,0.8-2.6,0.8-3.8c0-1.5-0.4-2.9-1.2-4.1c-1.4-2.1-4.1-3.4-7.7-4.1
	c1.1-2.5,5.1-10.3,5.1-10.3H688.8z"/>
<path class="st1" d="M877,432.4"/>
<path class="st1" d="M581.7,383.1h-16.8v90.4h1c5.3,0,10.2-1,14.4-3.7c6-3.6,7.7-9.6,7.7-14v-72.7H581.7z"/>
<path class="st1" d="M758,400.8c0-4.4-1.7-10.3-7.6-14c-4.3-2.7-9.2-3.7-14.5-3.7h-1v52.3c0,7-1.8,11.5-5,14.8
	c-5.5,5.4-10.8,6.8-29.8,6.8h-9.7c-15,0-17.8-0.4-21-1.4c-3.4-1.2-6.2-3.2-7.9-5.7c-1.6-2.6-2.3-5.9-2.3-10.8v-24.7h-23.1v23.9
	c0,8.6,1,19.1,10.1,26.4c8.2,6.5,20.8,8.7,34.1,8.7H711c15.3,0,26.6-3,34.3-11.8c6.3,7.3,15.6,11.9,30.9,11.9h95.3
	c14.4,0,21.1-4.7,24.2-8.5c3.2-3.9,4.4-8.9,4.4-14.4v-36.2h-1c-5.3,0-10.2,1.2-14.4,3.9c-6,3.6-7.7,9.5-7.7,13.9v18.1l-1,3.7
	c-1,1-2.6,1.4-5.9,1.4h-40.7v-40.9h-23.1v40.9h-28.5c-5.7,0-10.7-1.2-14.2-3.9c-4.3-3.2-5.6-7.5-5.6-12.9V400.8z"/>
<path class="st1" d="M530.9,400.8"/>
<path class="st1" d="M463.3,466.2c0,8.7-1.8,13.4-18.8,17.8l-2.8,0.6l1.9,14.3l3.2-0.4c23.4-3.1,37.9-12.4,39.1-24.8h39.5
	c14.4,0,21-4.7,24.2-8.5c3.2-3.9,4.4-8.9,4.4-14.4v-67.7h-1c-5.3,0-10.2,1-14.5,3.6c-6,3.7-7.6,9.6-7.6,14.1v49.7l-1,3.7
	c-0.9,1-2.6,1.4-5.9,1.4h-37.6v-23.2c0-4.4-1.6-10.3-7.6-14c-4.3-2.7-9.2-3.8-14.5-3.8h-1V466.2z"/>
<path class="st1" d="M412.1,414.5v35.9l-1,3.7c-1,1-2.5,1.4-5.8,1.4h-11.4h-25.1h-4.4c-3.3,0-4.9-0.4-5.9-1.4l-1-3.7v-49.7
	c0-4.5-1.7-10.4-7.6-14.1c-4.3-2.7-9.2-3.6-14.5-3.6h-1v67.7c0,5.5,1.1,10.5,4.4,14.4c3.2,3.8,9.8,8.5,24.2,8.5h5.9h25.1h12.8
	c14.4,0,21-4.7,24.2-8.5c3.2-3.9,4.4-8.9,4.4-14.4v-36.2H412.1z"/>
<path class="st1" d="M296.9,430.9v19.5l-1,3.7c-1,1-2.6,1.4-5.9,1.4h-8.9h-44.5h-15.2v-1.4c0-21.2,17.5-23.2,51.4-23.2H296.9z
	 M199,453.9c0,6.8-1.5,11.5-4.8,14.7c-5.4,5.5-10.8,6.8-29.8,6.8h-10c-15,0-17.8-0.4-21-1.5c-3.4-1.1-6.3-3.1-7.9-5.7
	c-1.6-2.5-2.4-5.9-2.4-10.7V453c0-4.4-1.7-10.3-7.7-14.1c-4.3-2.6-9.2-3.7-14.4-3.7h-1v21.5c0,8.5,1.1,19.1,10.1,26.4
	c8.1,6.5,20.8,8.8,34.1,8.8H176c15.3,0,28.7-2.9,36-11.4c2.9-3.4,3.8-5,4.5-6.8h39.3h22.9h12.9c14.4,0,20.9-4.7,24.2-8.5
	c3.2-3.9,4.4-8.9,4.4-14.4v-36.1h-56.3c-8.6,0-15.7,0.4-21.5,1.1c-8,1.2-15.4,3.4-20.8,7.2v-19.1H199V453.9z"/>
</svg>
