<?xml version="1.0" encoding="utf-8"?>
<!-- Generator: Adobe Illustrator 21.0.0, SVG Export Plug-In . SVG Version: 6.00 Build 0)  -->
<svg version="1.1" id="Layer_1" xmlns="http://www.w3.org/2000/svg" xmlns:xlink="http://www.w3.org/1999/xlink" x="0px" y="0px"
	 width="528.6px" height="78.4px" viewBox="0 0 528.6 78.4" style="enable-background:new 0 0 528.6 78.4;" xml:space="preserve">
<style type="text/css">
	.st0{fill:#EE3524;}
</style>
<path class="st0" d="M207.7,29.9L236,58.2v0V1.6L207.7,29.9z M236,58.2h56.6l-28.3-28.3L236,58.2z M292.6,1.6H236l28.3,28.3
	L292.6,1.6z M320.9,29.9L292.6,1.6v56.6v0L320.9,29.9z"/>
<g>
	<path d="M30.2,32.4c-2-1.7-5.8-4.5-11.5-8.2c-5.2-3.4-8.1-5.4-8.7-6.2c-1.6-1.9-2.4-3.7-2.4-5.3c0-0.3,0-0.6,0-0.9
		c0.5-4,3.2-6.5,8-7.4c0.9-0.2,1.7-0.2,2.6-0.2c3,0,5.8,1.1,8.1,3.2c2.8,2.5,4.5,6.6,5.2,12.2h0.9V1.1h-0.9
		c-0.2,1.5-0.7,2.5-1.6,3.1c-1.1,0.6-2.3,0.6-3.7,0c-1.3-0.7-2.5-1.3-3.8-2c-2.3-1-4.5-1.5-6.7-1.5c-4.5,0-8.4,1.5-11.6,4.5
		c-2.6,2.5-3.9,5.7-3.9,9.6c0,2.8,1.1,5.5,3.3,8c1.5,1.7,4.7,4.2,9.6,7.4c1.9,1.2,5.2,3.4,9.9,6.4c2.9,1.9,4.5,4.4,4.8,7.6
		c0.2,2.6-0.6,5-2.4,7.2c-1.7,2-3.6,3.1-5.8,3.5c-0.8,0.1-1.6,0.2-2.5,0.2c-4.7,0-8.4-1.5-11-4.5c-3-3.5-4.8-7.3-5.3-11.6H0v19.5
		h0.9c0.2-1.7,0.9-2.9,1.9-3.6c1-0.6,2.1-0.6,3.5-0.1c1.6,0.8,3.3,1.5,4.9,2.2c2.8,1.1,5.5,1.7,7.9,1.7c4.5,0,8.5-1.5,11.9-4.6
		c1.4-1.3,2.6-3,3.5-5.2c0.9-2.2,1.3-4.1,1.2-5.8C35.5,39,33.7,35.4,30.2,32.4 M126.9,29.2c2.9-0.9,5.2-2.6,6.9-5
		c1.5-2.3,2.3-4.8,2.3-7.6c0-1.1-0.1-2.2-0.4-3.2c-0.9-3.4-3-6.1-6.3-8.2c-2.1-1.3-4.4-2.2-6.9-2.7c-2.8-0.5-5.8-0.8-9.2-0.8H93.2
		v1.1h3.3c1.1,0,2.2,0.4,3.1,1.3c1,0.9,1.4,1.9,1.4,3.2v45.3c0,1.3-0.5,2.3-1.4,3.2c-1,0.9-2,1.3-3.1,1.3h-2.1c-2.8,0-5-1.1-6.4-3.2
		c-0.3-0.4-1.1-2.4-2.5-5.8L66.5,0h-1.6L49,41.5c-2.6,6.7-4,10.3-4.3,10.9c-1.8,3.1-4.3,4.7-7.6,4.7v1h19.4v-1
		c-2.3,0-3.9-0.2-4.8-0.5c-1.8-0.6-2.7-1.8-2.6-3.7c0.1-1.3,0.7-3.6,1.8-6.8c0.8-2.3,1.6-4.6,2.4-6.9h20.5l2.8,7.6
		c1,2.7,1.5,4.7,1.5,6.1c0,2.7-2.2,4.1-6.5,4.1v1h21.6l21,0c4.9,0,7.8,0,8.7-0.2c8.5-1.1,13.6-4.7,15.1-10.9
		c0.4-1.4,0.5-2.7,0.5-4.1C138.6,36.4,134.7,31.8,126.9,29.2 M54.5,36.3l9.1-23.9l8.9,23.9H54.5z M108.6,5c1.9-0.6,3.9-0.8,6.2-0.8
		c3.8,0,6.9,0.9,9.4,2.6c3.1,2.2,4.7,5.3,4.7,9.2c0,4.4-2,7.9-6,10.4c-1.7,1.1-4.6,1.6-8.7,1.6c-2.3,0-4.2-0.2-5.5-0.5V5z
		 M125.2,53.4c-2.5,1.8-5.6,2.7-9.4,2.7c-2.5,0-4.9-0.4-7.2-1.1V30.8c1.3-0.3,3.1-0.5,5.3-0.5c4.7,0,8.1,0.6,10.1,1.9
		c4.2,2.7,6.3,6.4,6.3,11C130.3,47.6,128.6,50.9,125.2,53.4 M174.4,29.2c2.9-0.9,5.2-2.6,6.9-5c1.5-2.3,2.3-4.8,2.3-7.6
		c0-1.1-0.1-2.2-0.4-3.2c-0.9-3.4-3-6.1-6.3-8.2c-2.1-1.3-4.4-2.2-6.9-2.7c-2.7-0.5-5.8-0.8-9.2-0.8h-20.2v1.1h3.3
		c1.1,0,2.2,0.4,3.1,1.3c1,0.9,1.4,1.9,1.4,3.2v45.3c0,1.3-0.5,2.3-1.4,3.2c-1,0.9-2,1.3-3.1,1.3h-3.3v1l21,0c4.9,0,7.8,0,8.7-0.2
		c8.5-1.1,13.6-4.7,15.1-10.9c0.4-1.4,0.5-2.7,0.5-4.1C186.1,36.4,182.2,31.8,174.4,29.2 M156.1,5c1.9-0.6,3.9-0.8,6.2-0.8
		c3.8,0,6.9,0.9,9.4,2.6c3.1,2.2,4.7,5.3,4.7,9.2c0,4.4-2,7.9-6,10.4c-1.7,1.1-4.6,1.6-8.7,1.6c-2.3,0-4.2-0.2-5.5-0.5V5z
		 M172.7,53.4c-2.5,1.8-5.6,2.7-9.4,2.7c-2.5,0-4.9-0.4-7.2-1.1V30.8c1.3-0.3,3-0.5,5.3-0.5c4.7,0,8.1,0.6,10.1,1.9
		c4.2,2.7,6.3,6.4,6.3,11C177.7,47.6,176.1,50.9,172.7,53.4"/>
	<path d="M369.1,72.6l9.6,5.8l4.2-6.9l-9.6-5.8L369.1,72.6z M396.8,33.4c2.7,4.4,6.3,11.2,6.3,16.1h-44.1c-6.5,0-11.9-4.2-11.9-12.1
		c0-3.5,4.6-10.4,3.4-10.4c-2.1,0-8.6,11.4-8.6,16.8c0,7.6,7.1,14.4,19,14.4h44.5c1.6-7,2.7-10.2,2.7-14.3c0-8-5.2-17.8-6.5-19.5
		C399.4,28.2,398.5,30.2,396.8,33.4 M521.9,41c1,3.4,1.8,9.1,1.8,9.1s-6.2,0-9.9-0.6c-0.6-0.1-2.9-0.5-2.8-1.2
		c1.6-6.4,3.5-14.5,3.5-14.5c-2.3,1.8-8,6.5-8.2,9.4c0.5,7-0.5,6.3-0.5,6.3h-9.2H490h-0.8c-4,0-7.6,0.4-8.1-1
		c2.7-2.4,3.7-8.5,3.7-15.7l-7.7,8.3c0,2.2,0.7,8.3-3,8.3h-43.3c-2.1,0-3.4,0-4.6-1.3c-0.2-0.1-0.7-0.8-0.7-0.8
		c-1.2-2.4,0.2-31.6-1-46.3c-2.1,2.7-4.5,5.7-6.2,7.9c0.6,6.3-0.1,43,0.2,49.3h52.2c3.4,0,5.1-3.3,5.6-3.3c0.4,0,0.9,1.4,1.9,2.9
		c0.2,0.5,5.2,0.4,11,0.4h0.8c4.6,0,9.4,0,13.1-0.2c1.3-0.6,2.9-2.1,3.5-2.1c0.4,0,2.7,1.5,4.5,2.1c5.9,2.1,14.1,0,14.1,0
		c0.5-0.6,3.4-6,3.4-13.2V32.1C527.1,34.8,521,39.4,521.9,41"/>
</g>
</svg>
