<?xml version="1.0" encoding="utf-8"?>
<!-- Generator: Adobe Illustrator 21.0.0, SVG Export Plug-In . SVG Version: 6.00 Build 0)  -->
<svg version="1.1" id="Layer_1" xmlns="http://www.w3.org/2000/svg" xmlns:xlink="http://www.w3.org/1999/xlink" x="0px" y="0px"
	 width="800.3px" height="183.3px" viewBox="0 0 800.3 183.3" style="enable-background:new 0 0 800.3 183.3;" xml:space="preserve"
	>
<style type="text/css">
	.st0{clip-path:url(#SVGID_2_);fill:url(#SVGID_3_);}
	.st1{fill:#FFFFFF;}
</style>
<g>
	<g>
		<defs>
			<rect id="SVGID_1_" width="800.3" height="183.3"/>
		</defs>
		<clipPath id="SVGID_2_">
			<use xlink:href="#SVGID_1_"  style="overflow:visible;"/>
		</clipPath>
		
			<linearGradient id="SVGID_3_" gradientUnits="userSpaceOnUse" x1="169.7159" y1="-231.6999" x2="180.2381" y2="-231.6999" gradientTransform="matrix(0 17.359 -17.359 0 -3621.9292 -2946.0989)">
			<stop  offset="0" style="stop-color:#04509F"/>
			<stop  offset="0.1779" style="stop-color:#0757A4"/>
			<stop  offset="0.4382" style="stop-color:#0F6BB3"/>
			<stop  offset="0.7476" style="stop-color:#1C8BCA"/>
			<stop  offset="1" style="stop-color:#29AAE1"/>
		</linearGradient>
		<rect class="st0" width="800.3" height="183.3"/>
	</g>
</g>
<g>
	<path class="st1" d="M131.9,111.1c0-3.3,3.3-5.5,8.5-5.5c4,0,7,0.5,9.5,1.7v5.1c-2,2.4-5.9,4.9-10.1,4.9
		C134.7,117.3,131.9,115,131.9,111.1 M126.4,85l-0.7,0.4l4.2,7.6l0.8-0.4c3.4-1.7,6.9-2.5,11.5-2.5c3.5,0,7.7,1.1,7.7,6.3v2
		c-2.5-0.8-5.5-1.3-9.3-1.3c-11.9,0-19,5.4-19,14.3c0,10.3,8.4,14.9,16.7,14.9c4.1,0,8.2-1.6,11.6-4.3v3.4h10.5V96
		c0-9.4-6.6-14.8-18-14.8C136.1,81.1,131,82.3,126.4,85"/>
	<path class="st1" d="M201.5,86.9c-2.7-3.7-6.7-5.8-12.5-5.8c-4.1,0-7.5,1.6-10,4V82h-10.7v43.3H179v-25.2c0-6.5,2.7-9.8,7.9-9.8
		c4.7,0,7.9,1.8,7.9,10.6v24.4h10.7v-25.2c0-6.5,2.7-9.8,7.9-9.8c4.7,0,7.9,1.8,7.9,10.6v24.4H232v-24.8c0-12.9-5.5-19.4-16.5-19.4
		C208.5,81.1,204.7,83.4,201.5,86.9"/>
	<path class="st1" d="M259.9,90.3c6.3,0,9.4,4.7,9.4,14.4c0,8.2-3,12.4-9,12.4c-4,0-7.9-2.7-9.9-5.2V95.1
		C251.7,93.5,255.3,90.3,259.9,90.3 M249.2,57.5l-9.3,4.4v63.4h10.6v-3.1c2.5,2,6.2,4,10.6,4c8.7,0,18.9-5.7,18.9-21.8
		c0-14.8-6.7-23.2-18.4-23.2c-3.9,0-7.4,1.5-11,4.1V56.9L249.2,57.5z"/>
	<path class="st1" d="M293.6,111.1c0-3.3,3.3-5.5,8.5-5.5c4,0,7,0.5,9.5,1.7v5.1c-2,2.4-5.8,4.9-10.2,4.9
		C296.4,117.3,293.6,115,293.6,111.1 M288.1,85l-0.7,0.4l4.3,7.6l0.8-0.4c3.4-1.7,6.9-2.5,11.4-2.5c3.5,0,7.7,1.1,7.7,6.3v2
		c-2.5-0.8-5.5-1.3-9.3-1.3c-11.9,0-19,5.4-19,14.3c0,10.3,8.4,14.9,16.7,14.9c4.1,0,8.2-1.6,11.6-4.3v3.4h10.5V96
		c0-9.4-6.6-14.8-18-14.8C297.8,81.1,292.7,82.3,288.1,85"/>
	<path class="st1" d="M77.1,93.7c0,8.7,7,11,17.8,13.5c9.4,2.2,11.1,3.7,11.1,5.8c0,1.3,0,4.8-9.8,4.8c-4.7,0-9.7-1.7-13-4.6
		l-0.9-0.7l-7.8,5.9l1,0.9c5,4.5,12.1,7,20,7c13.4,0,21.2-5,21.2-13.8s-8.2-11.4-18.2-13.7c-9.1-2.2-10.7-3.4-10.7-5.4
		c0-2.5,2.9-3.9,7.6-3.9c4.8,0,8.4,1.1,11.6,3.7l0.9,0.7l7.7-6.1l-1.2-0.9C109,82.9,103.2,81,96,81C85,80.9,77.1,86.2,77.1,93.7"/>
	<path class="st1" d="M411.9,123.4L384,79.8c-1-1.7-1.3-3-1.3-4.9c0-8.5,7.5-15.4,16.8-15.4c9.4,0,16.8,6.9,16.8,15.4
		c0,1.9-0.5,4.4-1.8,6.5c-1,1.7-6.7,9.6-6.7,9.6l-7.3-11.4l1.8-2.2c0.6-0.7,1.1-1.5,1.1-2.5c0-2-1.8-3.6-4-3.6s-3.9,1.7-3.9,3.6
		c0,1,0.6,1.5,1.2,2.6l16.8,25.8c2.9,4.6,3.6,7.8,3,11.8C415.8,119.5,411.9,123.4,411.9,123.4"/>
	<path class="st1" d="M402,138.3l-7.2-11.2c0,0-1.3,2.2-2.7,3.1c-0.9,0.6-2.4,0.8-3.8,0.8h-8.4c-2,0-3.2-1.7-3.8-2.3
		c0,0-11.6-17.2-12.8-19c-1.3-1.9-1.5-4.2-1.4-5.4V78.8c0-2.4,2-4.7,2.7-5.4c0.8-0.7,15.5-17.7,16.9-19.2c1.4-1.6,3.1-2,4.4-2h28.3
		c1.8,0,3.3,1.2,4.4,2.5c0,0,16.5,18.5,17.5,19.6c1.3,1.3,1.8,2.9,1.8,4v29.5c0,1.5-0.4,2.7-1,3.7c0,0-11.2,17.1-12,18.1
		c-0.8,0.9-1.5,1.2-2.7,1.2h-6.9l-2.1-1.2l-22.5-35.5c0,0-3.2,3.6-4.2,8c-0.9,3.8-0.1,7.9,1.5,10.5l16.9,26.6c1.6,2.5,3.7,2.9,5,2.9
		h20.2c1.8,0,3.8-2.8,4.2-3.5c0,0,13.5-20.3,14.9-22.5c1.4-2.3,1.4-3.6,1.4-5.7v-36c0-2.7-1.3-3.6-2.3-4.7c0,0-22.3-24.4-23.8-26
		c-1.5-1.7-2.8-2.4-4.7-2.4H379c-2.1,0-3.8,1.2-5.1,2.6c0,0-20.5,23.9-21.9,25.6s-2.3,3.6-2.3,5.4v34.5c0,2.9,1.7,5.1,2.4,6.2
		c0,0,15.3,22.5,16.5,24.2c1.3,1.7,3.7,2.3,5.5,2.3h22.5c1.5,0,3.4-0.5,5-3L402,138.3z"/>
	<path class="st1" d="M526.1,131.9c-1.9,0-3.6,0.6-4.9,1.7c-1.4,1.1-2,2.4-2,4s0.7,2.9,2,4s3,1.6,5,1.6s3.6-0.5,5-1.6s2-2.4,2-4
		c0-1.5-0.7-2.9-2.1-4C529.6,132.4,528,131.9,526.1,131.9"/>
	<path class="st1" d="M663,115.7V91.6h-10.4v17.5c0,4.7-4.3,5.8-7.3,5.8h-19.7c-3.9,0-5.8-1.8-5.8-5.8V56.8l-10.5,5.1v49.4
		c0,9.2,6.3,13.9,18.9,13.9h15.9c3.5,0,6.7-0.7,10-2.4c4.5,2.1,11.8,2.8,17.5,2.8c6.5,0,11.6-1.4,14.5-2.6
		c4.1,1.2,12.4,2.6,18.7,2.6c7.6,0,13-1.7,16.3-4.5c3.1-2.5,4.7-6.3,4.7-10.9V91.6h-10.4v17c0,6.5-5.9,7.7-10.4,7.7
		c-2.7,0-7.4-0.2-10.5-1.1V91.6h-10.6v17c0,6.2-6,7.7-10.5,7.7C668.9,116.3,664.3,115.6,663,115.7"/>
	<path class="st1" d="M579.1,87c-6,0-11.5,2-15.3,7.3c-3,4.1-3.8,8.3-4.1,10.6c-0.4,2.9,0,5.8,0,6.4c0,1.7-0.8,2.7-1.9,3.1
		c-0.8,0.4-2.1,0.5-5.3,0.5h-14c-4.1,0-6.9-2.2-6.9-6.6V91.5H521V109c0,4-2.1,5.9-6.3,5.9h-20.1c-3.9,0-5.8-1.8-5.8-5.8V56.8
		l-10.7,5.1v49.5c0,9.2,6.4,13.9,19,13.9h17.2c5.2,0,9.4-0.8,12.5-2.4c3.1,1.6,7.3,2.4,11.3,2.4h13.8c6.4,0,8.9-1.1,11.2-3.9
		c3.7,6.2,9.8,8.3,16.9,8.3c8,0,13-3.4,16.1-8.2c2.1-3.2,3.7-8,3.7-12.8c0-4.9-1.2-11.2-5.3-15.8C590.5,88.6,585.6,87,579.1,87
		 M579.6,121c-3,0-5.3-1.1-6.9-3.3c-1.6-2.2-2.4-5.3-2.4-9.4c0-4,0.8-7.1,2.4-9.3c1.6-2.1,3.9-3.3,6.9-3.3s5.3,1.1,6.9,3.3
		c1.6,2.2,2.4,5.3,2.4,9.3c0,4.1-0.8,7.2-2.4,9.4C584.9,119.8,582.6,121,579.6,121"/>
</g>
</svg>
